Crispy Narrow Black-MaxGrade.ufo
<glyph name="ampersand" format="2">
  <advance width="1005"/>
  <unicode hex="0026"/>
  <outline>
    <contour>
      <point x="-123" y="766" type="line"/>
      <point x="-123" y="0" type="line"/>
      <point x="537" y="0" type="line"/>
      <point x="623" y="528" type="line"/>
      <point x="597" y="528" type="line"/>
      <point x="725" y="-44" type="line"/>
      <point x="987" y="1" type="line"/>
      <point x="846" y="643" type="line"/>
      <point x="403" y="643" type="line"/>
      <point x="321" y="152" type="line"/>
      <point x="154" y="152" type="line"/>
      <point x="154" y="618" type="line"/>
      <point x="370" y="618" type="line"/>
      <point x="370" y="1182" type="line"/>
      <point x="444" y="1426" type="line"/>
      <point x="473" y="1426" type="line"/>
      <point x="473" y="938" type="line"/>
      <point x="751" y="938" type="line"/>
      <point x="751" y="1600" type="line"/>
      <point x="225" y="1600" type="line"/>
      <point x="92" y="1234" type="line"/>
      <point x="92" y="766" type="line"/>
    </contour>
  </outline>
</glyph>
<glyph name="period" format="2">
  <advance width="347"/>
  <unicode hex="002E"/>
  <outline>
    <contour>
      <point x="326" y="0" type="line"/>
      <point x="326" y="199" type="line"/>
      <point x="23" y="199" type="line"/>
      <point x="23" y="0" type="line"/>
    </contour>
  </outline>
</glyph>
<glyph name="one" format="2">
  <advance width="430"/>
  <unicode hex="0031"/>
  <outline>
    <contour>
      <point x="4" y="0" type="line"/>
      <point x="429" y="0" type="line"/>
      <point x="429" y="174" type="line"/>
      <point x="366" y="174" type="line"/>
      <point x="366" y="1600" type="line"/>
      <point x="4" y="1600" type="line"/>
      <point x="4" y="1426" type="line"/>
      <point x="67" y="1426" type="line"/>
      <point x="67" y="174" type="line"/>
      <point x="4" y="174" type="line"/>
    </contour>
  </outline>
</glyph>
<glyph name="seven" format="2">
  <advance width="715"/>
  <unicode hex="0037"/>
  <outline>
    <contour>
      <point x="198" y="-33" type="line"/>
      <point x="477" y="-89" type="line"/>
      <point x="692" y="1267" type="line"/>
      <point x="692" y="1600" type="line"/>
      <point x="19" y="1600" type="line"/>
      <point x="19" y="1027" type="line"/>
      <point x="318" y="1027" type="line"/>
      <point x="318" y="1426" type="line"/>
      <point x="392" y="1426" type="line"/>
      <point x="392" y="1305" type="line"/>
    </contour>
  </outline>
</glyph>
<glyph name="eight" format="2">
  <advance width="722"/>
  <unicode hex="0038"/>
  <outline>
    <contour>
      <point x="23" y="0" type="line"/>
      <point x="700" y="0" type="line"/>
      <point x="700" y="685" type="line"/>
      <point x="627" y="795" type="line"/>
      <point x="627" y="804" type="line"/>
      <point x="697" y="804" type="line"/>
      <point x="697" y="1600" type="line"/>
      <point x="26" y="1600" type="line"/>
      <point x="26" y="912" type="line"/>
      <point x="97" y="805" type="line"/>
      <point x="97" y="796" type="line"/>
      <point x="23" y="796" type="line"/>
    </contour>
    <contour>
      <point x="322" y="174" type="line"/>
      <point x="322" y="697" type="line"/>
      <point x="353" y="720" type="line"/>
      <point x="401" y="659" type="line"/>
      <point x="401" y="174" type="line"/>
    </contour>
    <contour>
      <point x="370" y="880" type="line"/>
      <point x="326" y="938" type="line"/>
      <point x="326" y="1426" type="line"/>
      <point x="397" y="1426" type="line"/>
      <point x="397" y="902" type="line"/>
    </contour>
  </outline>
</glyph>
<glyph name="A" format="2">
  <advance width="721"/>
  <unicode hex="0041"/>
  <outline>
    <contour>
      <point x="27" y="0" type="line"/>
      <point x="326" y="0" type="line"/>
      <point x="326" y="1286" type="line"/>
      <point x="372" y="1426" type="line"/>
      <point x="400" y="1426" type="line"/>
      <point x="400" y="0" type="line"/>
      <point x="700" y="0" type="line"/>
      <point x="700" y="1600" type="line"/>
      <point x="143" y="1600" type="line"/>
      <point x="27" y="1296" type="line"/>
    </contour>
    <contour>
      <point x="199" y="629" type="line"/>
      <point x="535" y="629" type="line"/>
      <point x="535" y="803" type="line"/>
      <point x="199" y="803" type="line"/>
    </contour>
  </outline>
</glyph>
<glyph name="C" format="2">
  <advance width="733"/>
  <unicode hex="0043"/>
  <outline>
    <contour>
      <point x="27" y="0" type="line"/>
      <point x="701" y="0" type="line"/>
      <point x="701" y="666" type="line"/>
      <point x="401" y="666" type="line"/>
      <point x="401" y="174" type="line"/>
      <point x="326" y="174" type="line"/>
      <point x="326" y="1244" type="line"/>
      <point x="366" y="1426" type="line"/>
      <point x="401" y="1426" type="line"/>
      <point x="401" y="935" type="line"/>
      <point x="700" y="935" type="line"/>
      <point x="700" y="1600" type="line"/>
      <point x="142" y="1600" type="line"/>
      <point x="27" y="1296" type="line"/>
    </contour>
  </outline>
</glyph>
<glyph name="J" format="2">
  <advance width="719"/>
  <unicode hex="004A"/>
  <outline>
    <contour>
      <point x="25" y="0" type="line"/>
      <point x="680" y="0" type="line"/>
      <point x="680" y="1600" type="line"/>
      <point x="381" y="1600" type="line"/>
      <point x="381" y="174" type="line"/>
      <point x="325" y="174" type="line"/>
      <point x="325" y="754" type="line"/>
      <point x="25" y="754" type="line"/>
    </contour>
  </outline>
</glyph>
<glyph name="P" format="2">
  <advance width="736"/>
  <unicode hex="0050"/>
  <outline>
    <contour>
      <point x="39" y="0" type="line"/>
      <point x="338" y="0" type="line"/>
      <point x="338" y="531" type="line"/>
      <point x="588" y="531" type="line"/>
      <point x="708" y="815" type="line"/>
      <point x="708" y="1600" type="line"/>
      <point x="39" y="1600" type="line"/>
    </contour>
    <contour>
      <point x="338" y="706" type="line"/>
      <point x="338" y="1426" type="line"/>
      <point x="408" y="1426" type="line"/>
      <point x="408" y="847" type="line"/>
      <point x="359" y="706" type="line"/>
    </contour>
  </outline>
</glyph>
<glyph name="U" format="2">
  <advance width="741"/>
  <unicode hex="0055"/>
  <outline>
    <contour>
      <point x="34" y="0" type="line" smooth="yes"/>
      <point x="708" y="0" type="line" smooth="yes"/>
      <point x="708" y="1600" type="line" smooth="yes"/>
      <point x="408" y="1600" type="line" smooth="yes"/>
      <point x="408" y="174" type="line"/>
      <point x="334" y="174" type="line" smooth="yes"/>
      <point x="334" y="1600" type="line"/>
      <point x="34" y="1600" type="line" smooth="yes"/>
    </contour>
  </outline>
</glyph>
<glyph name="W" format="2">
  <advance width="1158"/>
  <unicode hex="0057"/>
  <outline>
    <contour>
      <point x="106" y="0" type="line"/>
      <point x="544" y="0" type="line"/>
      <point x="579" y="1419" type="line"/>
      <point x="579" y="1419" type="line"/>
      <point x="617" y="0" type="line"/>
      <point x="1054" y="0" type="line"/>
      <point x="1129" y="1571" type="line"/>
      <point x="866" y="1603" type="line"/>
      <point x="791" y="142" type="line"/>
      <point x="818" y="142" type="line"/>
      <point x="768" y="1579" type="line"/>
      <point x="390" y="1579" type="line"/>
      <point x="343" y="142" type="line"/>
      <point x="368" y="142" type="line"/>
      <point x="294" y="1603" type="line"/>
      <point x="30" y="1571" type="line"/>
    </contour>
  </outline>
</glyph>
<glyph name="X" format="2">
  <advance width="647"/>
  <unicode hex="0058"/>
  <outline>
    <contour>
      <point x="397" y="1" type="line"/>
      <point x="677" y="1" type="line"/>
      <point x="677" y="157" type="line"/>
      <point x="606" y="157" type="line"/>
      <point x="281" y="1600" type="line"/>
      <point x="7" y="1600" type="line"/>
      <point x="7" y="1445" type="line"/>
      <point x="73" y="1445" type="line"/>
    </contour>
    <contour>
      <point x="22" y="-6" type="line"/>
      <point x="280" y="-8" type="line"/>
      <point x="307" y="796" type="line"/>
      <point x="95" y="796" type="line"/>
    </contour>
    <contour>
      <point x="373" y="809" type="line"/>
      <point x="584" y="809" type="line"/>
      <point x="650" y="1604" type="line"/>
      <point x="394" y="1609" type="line"/>
    </contour>
  </outline>
</glyph>
<glyph name="Z" format="2">
  <advance width="712"/>
  <unicode hex="005A"/>
  <outline>
    <contour>
      <point x="23" y="0" type="line"/>
      <point x="687" y="0" type="line"/>
      <point x="687" y="498" type="line"/>
      <point x="388" y="498" type="line"/>
      <point x="388" y="174" type="line"/>
      <point x="322" y="174" type="line"/>
      <point x="322" y="366" type="line"/>
      <point x="687" y="1370" type="line"/>
      <point x="687" y="1600" type="line"/>
      <point x="36" y="1600" type="line"/>
      <point x="36" y="1141" type="line"/>
      <point x="305" y="1141" type="line"/>
      <point x="305" y="1426" type="line"/>
      <point x="408" y="1426" type="line"/>
      <point x="408" y="1371" type="line"/>
      <point x="23" y="369" type="line"/>
    </contour>
  </outline>
</glyph>
<glyph name="backslash" format="2">
  <advance width="427"/>
  <unicode hex="005C"/>
  <outline>
    <contour>
      <point x="302" y="1672" type="line"/>
      <point x="8" y="1647" type="line"/>
      <point x="123" y="-62" type="line"/>
      <point x="417" y="-37" type="line"/>
    </contour>
  </outline>
</glyph>
<glyph name="g" format="2">
  <advance width="628"/>
  <unicode hex="0067"/>
  <outline>
    <contour>
      <point x="88" y="-301" type="line"/>
      <point x="531" y="-301" type="line"/>
      <point x="601" y="-132" type="line"/>
      <point x="601" y="1200" type="line"/>
      <point x="90" y="1200" type="line"/>
      <point x="17" y="1017" type="line"/>
      <point x="17" y="65" type="line"/>
      <point x="304" y="65" type="line"/>
      <point x="344" y="147" type="line"/>
      <point x="344" y="1" type="line"/>
      <point x="293" y="-150" type="line"/>
      <point x="88" y="-150" type="line"/>
    </contour>
    <contour>
      <point x="274" y="218" type="line"/>
      <point x="274" y="902" type="line"/>
      <point x="327" y="1047" type="line"/>
      <point x="344" y="1047" type="line"/>
      <point x="344" y="218" type="line"/>
    </contour>
  </outline>
</glyph>
<glyph name="h" format="2">
  <advance width="622"/>
  <unicode hex="0068"/>
  <outline>
    <contour>
      <point x="342" y="0" type="line"/>
      <point x="342" y="1047" type="line"/>
      <point x="278" y="1047" type="line"/>
      <point x="278" y="1052" type="line"/>
      <point x="325" y="1200" type="line"/>
      <point x="599" y="1200" type="line"/>
      <point x="599" y="0" type="line"/>
    </contour>
    <contour>
      <point x="26" y="0" type="line"/>
      <point x="26" y="1700" type="line"/>
      <point x="282" y="1700" type="line"/>
      <point x="282" y="0" type="line"/>
    </contour>
  </outline>
</glyph>
<glyph name="j" format="2">
  <advance width="315"/>
  <unicode hex="006A"/>
  <outline>
    <contour>
      <point x="-97" y="-305" type="line"/>
      <point x="179" y="-305" type="line"/>
      <point x="287" y="-45" type="line"/>
      <point x="287" y="1201" type="line"/>
      <point x="30" y="1201" type="line"/>
      <point x="30" y="85" type="line"/>
      <point x="-55" y="-150" type="line"/>
      <point x="-97" y="-150" type="line"/>
    </contour>
    <contour>
      <point x="30" y="1294" type="line"/>
      <point x="30" y="1528" type="line"/>
      <point x="286" y="1528" type="line"/>
      <point x="286" y="1294" type="line"/>
    </contour>
  </outline>
</glyph>
<glyph name="endash" format="2">
  <advance width="292"/>
  <unicode hex="2013"/>
  <outline>
    <contour>
      <point x="15" y="713" type="line"/>
      <point x="277" y="713" type="line"/>
      <point x="277" y="888" type="line"/>
      <point x="15" y="888" type="line"/>
    </contour>
  </outline>
</glyph>
<glyph name="euro" format="2">
  <advance width="855"/>
  <unicode hex="20AC"/>
  <outline>
    <contour>
      <point x="653" y="676" type="line"/>
      <point x="653" y="763" type="line"/>
      <point x="25" y="763" type="line"/>
      <point x="25" y="676" type="line"/>
    </contour>
    <contour>
      <point x="653" y="835" type="line"/>
      <point x="653" y="923" type="line"/>
      <point x="25" y="923" type="line"/>
      <point x="25" y="835" type="line"/>
    </contour>
    <contour>
      <point x="265" y="1600" type="line"/>
      <point x="146" y="1407" type="line"/>
      <point x="146" y="0" type="line"/>
      <point x="773" y="0" type="line"/>
      <point x="773" y="540" type="line"/>
      <point x="516" y="540" type="line"/>
      <point x="516" y="174" type="line"/>
      <point x="446" y="174" type="line"/>
      <point x="446" y="1248" type="line"/>
      <point x="504" y="1426" type="line"/>
      <point x="517" y="1426" type="line"/>
      <point x="517" y="1143" type="line"/>
      <point x="774" y="1143" type="line"/>
      <point x="774" y="1600" type="line"/>
    </contour>
  </outline>
</glyph>
<glyph name="summation" format="2">
  <advance width="690"/>
  <unicode hex="2211"/>
  <outline>
    <contour>
      <point x="19" y="-400" type="line"/>
      <point x="663" y="-400" type="line"/>
      <point x="663" y="120" type="line"/>
      <point x="385" y="120" type="line"/>
      <point x="385" y="-226" type="line"/>
      <point x="321" y="-226" type="line"/>
      <point x="398" y="599" type="line"/>
      <point x="398" y="601" type="line"/>
      <point x="321" y="1426" type="line"/>
      <point x="387" y="1426" type="line"/>
      <point x="387" y="1042" type="line"/>
      <point x="665" y="1042" type="line"/>
      <point x="665" y="1600" type="line"/>
      <point x="19" y="1600" type="line"/>
      <point x="110" y="600" type="line"/>
    </contour>
  </outline>
</glyph>
<glyph name="C.wide" format="2">
  <advance width="570"/>
  <outline>
    <contour>
      <point x="27" y="0" type="line"/>
      <point x="526" y="0" type="line"/>
      <point x="526" y="174" type="line"/>
      <point x="326" y="174" type="line"/>
      <point x="326" y="1155" type="line"/>
      <point x="372" y="1426" type="line"/>
      <point x="525" y="1426" type="line"/>
      <point x="525" y="1600" type="line"/>
      <point x="109" y="1600" type="line"/>
      <point x="27" y="1173" type="line"/>
    </contour>
  </outline>
</glyph>
<glyph name="L.wide" format="2">
  <advance width="608"/>
  <outline>
    <contour>
      <point x="39" y="0" type="line"/>
      <point x="39" y="1600" type="line"/>
      <point x="338" y="1600" type="line"/>
      <point x="338" y="174" type="line"/>
      <point x="590" y="174" type="line"/>
      <point x="590" y="0" type="line"/>
    </contour>
  </outline>
</glyph>
<glyph name="nine.smol" format="2">
  <advance width="458"/>
  <outline>
    <contour>
      <point x="441" y="1018" type="line"/>
      <point x="17" y="1018" type="line"/>
      <point x="17" y="466" type="line"/>
      <point x="252" y="466" type="line"/>
      <point x="252" y="200" type="line"/>
      <point x="221" y="110" type="line"/>
      <point x="209" y="110" type="line"/>
      <point x="209" y="321" type="line"/>
      <point x="20" y="321" type="line"/>
      <point x="20" y="0" type="line"/>
      <point x="368" y="0" type="line"/>
      <point x="441" y="194" type="line"/>
    </contour>
    <contour>
      <point x="206" y="577" type="line"/>
      <point x="206" y="908" type="line"/>
      <point x="252" y="908" type="line"/>
      <point x="252" y="577" type="line"/>
    </contour>
  </outline>
</glyph>
